<mxfile host="app.diagrams.net" modified="2023-05-15T08:21:40.326Z" agent="Mozilla/5.0 (Macintosh; Intel Mac OS X 10_15_7) AppleWebKit/605.1.15 (KHTML, like Gecko) Version/16.3 Safari/605.1.15" version="21.3.0" etag="jLpE8hsT6VPUTBi59dL6" type="github">
  <diagram name="Page-1" id="dbpJPx3zQGFUIyQtWBNA">
    <mxGraphModel>
      <root>
        <mxCell id="0" />
        <mxCell id="1" parent="0" />
      </root>
    </mxGraphModel>
  </diagram>
</mxfile>
